<?xml version="1.0" encoding="utf-8"?>
<!-- Generator: Adobe Illustrator 15.0.2, SVG Export Plug-In . SVG Version: 6.00 Build 0)  -->
<!DOCTYPE svg PUBLIC "-//W3C//DTD SVG 1.1//EN" "http://www.w3.org/Graphics/SVG/1.1/DTD/svg11.dtd">
<svg version="1.1" id="Layer_1" xmlns="http://www.w3.org/2000/svg" xmlns:xlink="http://www.w3.org/1999/xlink" x="0px" y="0px"
	 width="100px" height="50px" viewBox="0 0 100 50" enable-background="new 0 0 100 50" xml:space="preserve">
<path fill="#333334" d="M56.882,33.961L56.882,33.961L56.882,33.961L56.882,33.961z M72.016,47.721
	c-1.247-3.58-3.071-7.42-4.476-11.291c-0.375-3.375-0.542-6.81-1.187-10.335l-0.002-0.014c0.122-0.138,0.242-0.277,0.357-0.418
	l-0.151-0.154c-0.09,0.071-0.182,0.141-0.273,0.211l-0.001-0.01l-0.006,0.016c-0.835,0.646-1.703,1.285-2.548,1.959
	c1.007-1.213,2.111-2.321,3.388-3.301c0.001-0.001,0.002-0.002,0.003-0.003l0,0c0.001,0,0.002-0.001,0.003-0.002l-0.129-0.174
	c-0.001,0-0.002,0.001-0.003,0.002l0,0c-0.001,0-0.002,0.001-0.003,0.002c-2.028,1.451-4.107,4.023-5.439,5.413l0.157,0.15l0,0l0,0
	c0.186-0.19,0.375-0.375,0.568-0.557c-0.217,0.302-0.428,0.609-0.639,0.921c-3.842-7.454-7.846-14.708-11.122-22.248
	C49.785,6,49.099,4.093,48.459,2.165l-0.206,0.068c0.032,0.095,0.063,0.189,0.095,0.284L48.336,2.52
	c-0.003-0.008-0.006-0.017-0.01-0.026L48.123,2.57v0c0.063,0.171,0.13,0.34,0.195,0.511c2.023,7.538,4.837,14.926,8.877,21.63
	c1.346,2.232,2.833,4.382,4.464,6.415c0.523,0.892,1.054,1.78,1.592,2.666c0.006,0.009,0.011,0.018,0.016,0.027v-0.001
	c0,0.001,0,0.001,0.001,0.001l0.19-0.103c0,0-0.001-0.001-0.001-0.002l0,0c-0.001-0.002-0.002-0.005-0.003-0.006
	c-0.16-0.341-0.345-0.704-0.538-1.07c-0.001-0.002-0.002-0.004-0.004-0.006c0.389,0.447,0.781,0.892,1.184,1.325l0.16-0.147
	c-0.607-0.653-1.194-1.324-1.766-2.007c-0.246-0.485-0.494-0.969-0.742-1.451c0.085-0.125,0.169-0.251,0.256-0.375l0.077,0.085
	c1.119-1.019,2.671-2.264,3.946-3.627c-0.199,0.683-0.288,1.481-0.288,2.367c0,0.476,0.026,0.978,0.074,1.498
	c-0.097-0.546-0.174-1.089-0.229-1.63l-0.215,0.021c0.153,1.487,0.469,2.99,0.89,4.494c0.308,1.487,0.732,3.047,1.224,4.585
	c0.444,3.381,1.189,6.719,2.934,10.04c-0.433-0.232-0.859-0.469-1.282-0.711c-4.283-3.464-8.864-6.756-13.66-9.505
	c0.202-0.204,0.388-0.409,0.549-0.608l-0.169-0.135c-0.167,0.207-0.36,0.419-0.574,0.633c-0.16-0.091-0.32-0.183-0.481-0.272
	c0.36-0.362,0.73-0.716,1.106-1.063c1.178-0.681,2.15-1.834,3.141-2.846c0.142-0.132,0.279-0.268,0.417-0.402
	c0.82,1.499,1.638,2.999,2.45,4.503l0.191-0.103v-0.001c-0.822-1.521-1.649-3.039-2.479-4.557c0.046-0.045,0.095-0.09,0.141-0.136
	l-0.149-0.156c-0.001,0.001-0.002,0.002-0.004,0.003v-0.001c-0.002,0.003-0.005,0.005-0.007,0.007
	c-0.029,0.028-0.06,0.058-0.089,0.085c-0.113-0.206-0.225-0.411-0.338-0.617c0.17-0.179,0.342-0.356,0.516-0.534
	c0.553,0.912,1.097,1.83,1.625,2.758l0.199-0.079c-0.29-1.159-0.682-2.274-1.148-3.359c0.081-0.08,0.16-0.16,0.242-0.24
	l-0.119-0.177c-0.084,0.038-0.168,0.08-0.252,0.128c-1.012-2.277-2.349-4.427-3.779-6.573c-4.774-6.51-9.539-12.359-12.878-19.22
	l-0.195,0.095c3.354,6.89,8.128,12.748,12.896,19.25c1.432,2.147,2.767,4.293,3.771,6.561l0,0c-0.197-0.359-0.38-0.66-0.532-0.882
	c-0.089-0.132-0.167-0.234-0.233-0.309c-0.073-0.071-0.102-0.127-0.216-0.142c-0.043-0.003-0.099,0.031-0.114,0.069
	c-0.02,0.035-0.021,0.063-0.021,0.09c0.006,0.135,0.1,0.419,0.317,0.898c-2.238-3.614-4.641-7.12-7.042-10.625
	c-1.04-1.765-2.096-3.52-3.172-5.263c-1.95-3.155-3.965-6.27-6.069-9.325l-0.178,0.123c2.102,3.051,4.114,6.164,6.063,9.316
	c0.454,0.735,0.902,1.474,1.349,2.213c-1.413-2.076-2.81-4.163-4.157-6.28c-1.128-1.774-2.166-3.613-3.34-5.369l-0.18,0.121
	c1.168,1.746,2.205,3.584,3.337,5.365c1.985,3.12,4.077,6.17,6.166,9.22c2.31,3.917,4.54,7.879,6.73,11.864
	c-0.722,0.725-1.417,1.564-2.035,2.188l0.154,0.152c0.61-0.619,1.295-1.436,1.99-2.139c0.014,0.025,0.026,0.049,0.041,0.073
	c-1.426,1.516-2.744,3.058-4.203,4.534l-0.279,0.282l0.385-0.103c0.148-0.039,0.293-0.088,0.435-0.143
	c-0.728,0.695-1.43,1.422-2.073,2.209c-0.074-0.039-0.149-0.079-0.224-0.118l-0.101,0.192l0,0c0.063,0.033,0.127,0.066,0.19,0.1
	c-0.17,0.213-0.339,0.427-0.499,0.649l0.139,0.159c0.298-0.153,0.6-0.332,0.897-0.526c1.588,0.83,3.174,1.662,4.754,2.498
	c3.703,2.547,7.499,5.232,11.846,6.606c0.303,0.251,0.605,0.502,0.905,0.754l0.163-0.138c-0.095-0.157-0.187-0.315-0.275-0.473
	c0.134,0.06,0.268,0.117,0.4,0.174l0.091-0.197c-0.236-0.119-0.473-0.241-0.706-0.363c-1.624-2.991-2.414-6.003-2.89-9.056
	c1.239,3.612,2.782,6.979,3.952,8.877L72.016,47.721z M57.381,24.599c-3.661-6.075-6.315-12.721-8.286-19.533
	c0.393,0.973,0.798,1.94,1.217,2.903c2.9,7.516,6.48,14.732,10.536,21.764C59.603,28.084,58.447,26.368,57.381,24.599z
	 M61.021,29.432c-0.016-0.008-0.011-0.027-0.086-0.038c-0.002,0-0.004,0-0.007,0c-0.008,0-0.017,0.001-0.025,0.005
	c-3.1-5.391-5.918-10.892-8.361-16.55c2.659,5.572,5.615,11.038,8.497,16.601C61.033,29.444,61.027,29.438,61.021,29.432z
	 M62.259,29.611c0.267-0.377,0.539-0.746,0.817-1.107c0.876-0.746,1.805-1.439,2.715-2.131
	C64.663,27.563,63.321,28.669,62.259,29.611z M66.469,33.132c-0.322-1.563-0.514-3.042-0.513-4.329c0-0.843,0.082-1.601,0.261-2.242
	c0.525,3.044,0.712,6.033,1.011,8.987C66.95,34.742,66.694,33.936,66.469,33.132z M67.26,36.293
	c0.022,0.063,0.044,0.123,0.066,0.186c0.002,0.022,0.005,0.047,0.008,0.07C67.31,36.464,67.284,36.378,67.26,36.293z M59.068,31.729
	c-0.012-0.022-0.024-0.046-0.037-0.068c0.177-0.173,0.354-0.332,0.532-0.483c0.004,0.008,0.009,0.016,0.015,0.024
	C59.406,31.377,59.235,31.553,59.068,31.729z M60.063,31.017c0.31,0.603,0.638,1.326,0.917,2.097
	c-0.438-0.786-0.782-1.436-1.051-1.963C59.974,31.105,60.021,31.062,60.063,31.017z M59.214,29.596
	c0.055,0.069,0.116,0.155,0.181,0.256c0.14,0.21,0.304,0.485,0.48,0.809c-0.048,0.032-0.094,0.064-0.142,0.1
	C59.461,30.204,59.294,29.821,59.214,29.596z M53.739,22.253c1.96,2.876,3.893,5.769,5.708,8.736
	c-0.176,0.147-0.351,0.307-0.523,0.476C57.227,28.377,55.503,25.304,53.739,22.253z M55.173,36.267
	c1.328-1.369,2.547-2.784,3.85-4.171c0.11,0.201,0.22,0.402,0.329,0.604c-0.144,0.138-0.286,0.278-0.428,0.422
	c-1.022,0.966-2.106,1.889-3.154,2.858C55.576,36.09,55.377,36.187,55.173,36.267z M67.838,46.342
	c-2.259-1.354-4.438-2.806-6.685-4.168c-1.976-1.441-3.832-2.903-5.456-4.2C59.932,40.428,63.998,43.304,67.838,46.342z
	 M59.418,41.154c-1.642-0.933-3.339-1.793-5.144-2.513c0.329-0.25,0.643-0.516,0.931-0.784
	C56.475,38.873,57.897,40.003,59.418,41.154z M53.016,39.228c0.071-0.094,0.146-0.186,0.219-0.277
	c0.042,0.022,0.083,0.044,0.125,0.064C53.245,39.088,53.13,39.16,53.016,39.228z M53.565,38.88
	c-0.063-0.035-0.128-0.068-0.192-0.102c0.396-0.482,0.815-0.941,1.25-1.387c0.136,0.108,0.271,0.217,0.41,0.328
	c-0.307,0.285-0.644,0.563-0.996,0.826c-0.021-0.008-0.043-0.018-0.064-0.025l-0.056,0.114C53.801,38.719,53.684,38.8,53.565,38.88z
	 M53.785,38.994c0.086-0.059,0.172-0.118,0.257-0.181c0.904,0.544,1.805,1.128,2.706,1.734
	C55.762,40.028,54.773,39.512,53.785,38.994z M55.13,39.23c2.072,0.899,4.01,1.978,5.902,3.125c0.935,0.681,1.896,1.36,2.872,2.014
	c-1.807-0.986-3.629-1.958-5.459-2.927C57.337,40.681,56.237,39.931,55.13,39.23z M60.011,42.519
	c3.252,1.732,6.47,3.488,9.609,5.304C66.166,46.617,63.044,44.594,60.011,42.519z M70.575,48.201
	c0.022,0.011,0.044,0.021,0.066,0.03c0.037,0.066,0.073,0.132,0.11,0.198c-0.067-0.057-0.135-0.112-0.202-0.169L70.575,48.201z
	 M67.695,37.724c-0.016-0.126-0.032-0.251-0.048-0.377c1.201,3.181,2.635,6.319,3.746,9.292
	C70.206,44.447,68.786,41.134,67.695,37.724z"/>
</svg>
