<?xml version="1.0" encoding="utf-8"?>
<!-- Generator: Adobe Illustrator 15.0.2, SVG Export Plug-In . SVG Version: 6.00 Build 0)  -->
<!DOCTYPE svg PUBLIC "-//W3C//DTD SVG 1.1//EN" "http://www.w3.org/Graphics/SVG/1.1/DTD/svg11.dtd">
<svg version="1.1" id="Layer_1" xmlns="http://www.w3.org/2000/svg" xmlns:xlink="http://www.w3.org/1999/xlink" x="0px" y="0px"
	 width="100px" height="50px" viewBox="0 0 100 50" enable-background="new 0 0 100 50" xml:space="preserve">
<g>
	<g>
		<path fill="#48447D" d="M46.31,35.657c0.036-0.397,0.053-0.793,0.053-1.188c-0.004-4.303-1.96-8.491-2.199-12.672l-0.268-0.003
			c-0.035,0.437-0.057,0.885-0.068,1.344c-0.07-0.323-0.138-0.643-0.203-0.96l-0.263,0.054c0.144,0.697,0.302,1.408,0.462,2.13
			c0.037,2.311,0.311,4.796,0.659,7.134c-1.04-2.238-2.852-4.491-4.866-6.554c-1.458-1.925-2.973-3.705-4.391-5.055l-0.21,0.161
			c0.228,0.41,0.469,0.813,0.722,1.21c-1.19-1.106-2.373-2.183-3.486-3.249l-0.19,0.189c0.416,0.44,0.826,0.889,1.23,1.346
			l-0.068,0.085c0.156,0.123,0.313,0.25,0.474,0.378c3.771,4.345,7.104,9.344,10.759,13.907c-0.06-0.041-0.119-0.08-0.179-0.121
			c-1.894-2.833-4.688-5.277-7.049-7.346l-0.382-0.334l0.167,0.479c0.724,2.045,2.188,3.633,3.729,5.167
			c-1.385-0.713-2.779-1.377-4.086-2.087l-0.153,0.217c2.438,2.201,5.833,4.166,8.286,6.431l0.206-0.17
			c-0.753-1.206-1.73-2.262-2.746-3.28c0.625,0.352,1.24,0.721,1.835,1.117c0.465,0.699,0.873,1.421,1.202,2.165l0.254-0.079
			c-0.066-0.347-0.134-0.704-0.201-1.071c0.267,0.321,0.535,0.641,0.805,0.957l0.004-0.002l0.108,0.23l0.03-0.313l0.084-0.051
			C46.353,35.768,46.331,35.713,46.31,35.657z"/>
		<path fill="#48447D" d="M58.691,31.128c-0.32-0.727-0.677-1.449-1.061-2.168c0.014-0.376,0.021-0.756,0.021-1.138
			c0-2.505-0.32-5.104-1.168-7.275l-0.054,0.021c0.007-0.471,0.028-0.941,0.063-1.409c0-0.003,0-0.007,0-0.011l0,0
			c0-0.001,0-0.001,0-0.001l-0.267-0.021c-0.052,0.612-0.075,1.235-0.075,1.864c0,0.331,0.008,0.663,0.02,0.998
			c0.054,1.76,0.249,3.524,0.491,5.264c-0.481-0.81-0.998-1.613-1.536-2.407c-3.729-6.193-8.576-12.962-13.707-16.157l-0.142,0.228
			c4.105,2.55,8.064,7.472,11.4,12.537c-1.503-1.966-3.079-3.863-4.586-5.66c-1.214-1.526-2.438-2.984-3.606-4.328l-0.206,0.172
			c0.001,0.001,0.002,0.002,0.003,0.003l0,0c0.002,0.002,0.003,0.004,0.005,0.006c1.096,1.353,2.32,2.795,3.591,4.308
			c3.068,3.856,6.079,8.15,8.022,12.119c-0.164-0.127-0.328-0.253-0.492-0.378c-0.517-0.479-1.05-0.943-1.58-1.407
			c-1.384-1.625-2.751-3.153-4.004-4.123l-0.193,0.183c0.964,1.397,2.222,2.566,3.511,3.696c-0.85-0.597-1.7-1.173-2.522-1.725
			l-0.187,0.185c1.478,2.232,4.037,4.301,6.441,5.763c0.155,0.395,0.298,0.786,0.426,1.17l0.26-0.062
			c-0.022-0.156-0.048-0.314-0.073-0.471c0.112,0.117,0.222,0.23,0.332,0.342l0.224-0.133c-0.041-0.137-0.081-0.274-0.12-0.412
			l0.071-0.078c-0.052-0.08-0.105-0.158-0.159-0.236c-0.053-0.183-0.103-0.368-0.15-0.555c0.264,0.483,0.521,0.956,0.765,1.411
			L58.691,31.128z"/>
		<g>
			<g>
				<path fill="#48447D" d="M49.039,48.661l-0.141-0.419c-0.79-2.366-2.229-5.073-3.405-7.598c-0.093-0.265-0.181-0.526-0.263-0.789
					l-0.255,0.08c0.011,0.035,0.022,0.071,0.034,0.105l-0.066,0.014c-0.001,0.048-0.001,0.097-0.001,0.145
					c0.003,2.236,0.996,4.359,1.935,6.354c-6.492-5.59-13.604-13.954-20.993-16.899l-0.125,0.235
					c5.895,4.095,12.226,9.27,17.433,14.78c-6.281-6.006-13.321-11.553-21.078-15.614l-0.124,0.238
					c8.643,4.525,16.405,10.909,23.216,17.72c-0.495-0.241-0.991-0.494-1.49-0.744c-1.75-0.989-3.462-2.114-5.347-2.782
					l-0.115,0.239c0.624,0.386,1.264,0.744,1.913,1.088c-0.431-0.115-0.87-0.2-1.317-0.25l-0.069,0.256
					c2.38,1.061,4.704,2.364,7.241,3.036c0.696,0.409,1.376,0.851,2.032,1.338l0.361,0.269l-0.156-0.422
					c-0.079-0.214-0.164-0.431-0.254-0.648c0.212,0.057,0.425,0.104,0.641,0.143l0.244,0.044l-0.023-0.054L49.039,48.661z"/>
			</g>
		</g>
		<path fill="#48447D" d="M72.576,33.984l-0.266,0.028c0.048,0.429,0.071,0.861,0.071,1.297c0,2.274-0.619,4.608-1.387,6.808
			c-0.002-0.218-0.008-0.437-0.013-0.654c0.048-0.355,0.092-0.713,0.135-1.071c0.679-2.816,0.915-5.524,0.923-8.937l-0.268-0.019
			c-0.36,2.755-0.552,5.666-0.873,8.507c-0.625-8.268-4.052-17.229-7.802-25.296c-1.898-5.166-4.315-9.991-7.706-13.973
			l-0.205,0.173c1.033,1.212,1.977,2.505,2.84,3.863l-0.095,0.056c1.413,2.772,2.947,5.797,4.445,8.971
			c3.495,9.595,4.291,20.215,7.497,29.897c-0.064,0.179-0.128,0.359-0.195,0.542c-0.104-0.089-0.206-0.188-0.309-0.298
			c-1.544-3.316-2.916-8.268-3.781-10.539l-0.259,0.065c0.212,1.491,0.782,4.062,1.609,6.395c0.613,1.707,1.344,3.287,2.205,4.228
			c0.12,0.257,0.241,0.504,0.363,0.739l0.139,0.267l0.105-0.281c0.02-0.052,0.039-0.102,0.056-0.151
			c0.11,0.069,0.222,0.128,0.334,0.175l0.127,0.054l0.006-0.019l0.089,0.249l0.097-0.476c0.036-0.17,0.069-0.341,0.102-0.513
			c0.141-0.367,0.283-0.741,0.423-1.12l0.011-0.003c0-0.012,0-0.022,0.002-0.035c0.881-2.413,1.652-5.031,1.652-7.603
			C72.649,34.865,72.626,34.424,72.576,33.984z"/>
	</g>
</g>
</svg>
