<?xml version="1.0" encoding="utf-8"?>
<!-- Generator: Adobe Illustrator 15.0.2, SVG Export Plug-In . SVG Version: 6.00 Build 0)  -->
<!DOCTYPE svg PUBLIC "-//W3C//DTD SVG 1.1//EN" "http://www.w3.org/Graphics/SVG/1.1/DTD/svg11.dtd">
<svg version="1.1" id="Layer_1" xmlns="http://www.w3.org/2000/svg" xmlns:xlink="http://www.w3.org/1999/xlink" x="0px" y="0px"
	 width="100px" height="50px" viewBox="0 0 100 50" enable-background="new 0 0 100 50" xml:space="preserve">
<path fill="#48447D" d="M49.347,26.6c5.819,1.427,12.627,2.488,19.241,2.49c4.346-0.002,8.605-0.468,12.457-1.586
	c0.006,0.018,0.016,0.035,0.021,0.053l0.48-0.137c-0.006-0.018-0.016-0.035-0.021-0.053c0.051-0.016,0.104-0.027,0.152-0.043
	l-0.148-0.477c-0.061,0.019-0.125,0.033-0.186,0.053c-1.504-3.428-7.539-6.485-10.557-8.705c-0.023-0.018-0.047-0.035-0.07-0.053
	l0,0c-0.002,0-0.002-0.002-0.004-0.002l-0.299,0.4c2.51,1.889,7.234,5.49,9.9,8.519l0.377-0.329l-0.002-0.002
	c-1.332-1.51-3.145-3.144-4.943-4.64c2.264,1.558,4.365,3.261,5.117,4.948c-3.783,1.091-7.98,1.551-12.275,1.551
	c-6.561,0-13.332-1.053-19.123-2.474c-8.712-2.111-26.64-9.605-26.572-20.837c0-0.342,0.018-0.687,0.049-1.036l-0.495-0.046
	l-0.003-0.002c-0.033,0.363-0.053,0.726-0.051,1.084C22.459,17.066,40.583,24.422,49.347,26.6z M70.127,18.639L70.127,18.639
	c-0.002-0.001-0.002,0-0.002,0H70.127z M85.398,25.181c-3.406-2.794-6.688-6.362-10.596-8.339c-0.797-0.611-1.588-1.207-2.359-1.775
	l-0.209,0.285l-0.201-0.148c-0.572,0.776-1.145,1.555-1.717,2.334c-0.197,0.268-0.396,0.537-0.594,0.805l0.404,0.296
	c0.197-0.269,0.395-0.536,0.592-0.806c0.365-0.492,0.729-0.986,1.092-1.481c0.18-0.244,0.359-0.487,0.539-0.731
	c0.189,0.139,0.379,0.279,0.568,0.422c-0.012-0.004-0.023-0.009-0.035-0.013l-0.158,0.473c0.613,0.207,1.211,0.462,1.797,0.755
	c3.613,2.773,7.416,5.893,10.678,8.402c0.66,0.538,1.328,1.049,2.008,1.516c0.002,0.002,0.002,0.002,0.004,0.003l0,0
	c0.002,0.001,0.004,0.003,0.006,0.005l0.291-0.407C86.838,26.281,86.131,25.746,85.398,25.181z M77.914,44.371l0.49,0.091
	c0.891-4.829,4.881-11.226,7.545-15.851c-1.391,5.598-5.789,11.01-7.553,16.29c-0.953-0.702-1.906-1.401-2.857-2.104l-0.002,0.001
	c0-0.001,0-0.001,0-0.001l-0.295,0.404c0,0,0.002,0,0.002,0.001c0.033,0.026,0.621,0.559,1.234,1.125
	c-0.586-0.28-1.158-0.563-1.66-0.857c3.135-4.271,5.715-8.044,7.535-12.767c0.092-0.127,0.186-0.252,0.277-0.375l-0.199-0.15
	l-0.076-0.236c-4.471,1.455-9.73,2.061-15.074,2.061c-6.574,0-13.277-0.912-18.794-2.26C37.965,27.203,15.588,20.713,15.168,7.18
	l-0.497,0.017c0.071,1.706,0.469,3.294,1.122,4.778c-0.316-0.45-0.639-0.902-0.976-1.354c-0.241-0.812-0.538-1.678-0.962-2.625
	l-0.455,0.206c0.194,0.429,0.36,0.843,0.508,1.243c-0.167-0.207-0.338-0.414-0.512-0.621l-0.506-0.595l0.065,0.779
	C14.179,22.369,31.519,28.09,43,30.99c0.293,0.098,0.586,0.193,0.88,0.289c6.541,2.127,14.414,3.543,22.085,3.543
	c2.641,0,5.256-0.168,7.787-0.533c1.248-0.073,2.49-0.174,3.723-0.3c-0.088,0.104-0.168,0.202-0.227,0.284l0.291,0.264
	c-0.088,0.197-0.18,0.395-0.27,0.594c-1.586,2.35-2.531,4.411-3.098,6.861c-0.148,0.37-0.287,0.732-0.414,1.086l0.178,0.082
	c-0.086,0.488-0.158,0.994-0.223,1.522l-0.275-0.042l0.248,0.291c-0.006,0.045-0.01,0.092-0.016,0.137l-0.027,0.244l0.244,0.031
	c0.057,0.008,0.117,0.016,0.182,0.024c0.668,0.694,1.313,0.896,1.951,0.896c0.014,0,0.029,0,0.045,0
	c0.508-0.003,1.014-0.092,1.609-0.092v-0.5c-0.646,0-1.164,0.092-1.609,0.092c-0.375-0.007-0.701-0.055-1.055-0.268
	c0.52,0.065,1.068,0.123,1.49,0.123c0.102,0.002,0.197-0.002,0.283-0.008l0.037-0.494c-0.553-0.123-2.018-0.279-2.611-0.361
	c0.041-0.336,0.088-0.66,0.137-0.979c1.045,0.649,2.434,1.193,3.436,1.775l0.238-0.307c0.072,0.054,0.145,0.107,0.219,0.161
	c-0.035,0.114-0.076,0.228-0.107,0.341l0.484,0.134c1.6-5.854,7.145-12.054,8.123-18.699l-0.465-0.157
	C83.703,31.668,78.941,38.881,77.914,44.371z M78.107,37.871c0.867-1.603,1.754-3.253,2.674-4.775
	C79.992,34.754,79.098,36.319,78.107,37.871z M13.549,9.797c0.281,0.348,0.552,0.699,0.815,1.051
	c0.661,2.266,0.927,4.199,2.45,6.361C15.114,15.057,13.946,12.601,13.549,9.797z M17.825,17.701
	c-1.658-1.969-2.095-3.705-2.626-5.707c2.822,3.986,5.01,8.008,9.801,11.058C22.304,21.704,19.751,19.998,17.825,17.701z
	 M21.449,21.57c1.326,0.898,2.743,1.666,4.179,2.341c3.71,1.742,7.37,3.352,11.12,4.814C31.458,27.063,25.844,24.777,21.449,21.57z
	 M45.099,30.994c-0.602-0.143-1.226-0.295-1.867-0.455c-3.919-1.305-7.67-2.768-11.397-4.375c3.721,1.289,7.69,2.299,11.073,3.648
	c1.909,0.76,3.877,1.421,5.889,1.986C47.551,31.555,46.318,31.285,45.099,30.994z M51.898,32.86c1.545,0.249,3.107,0.46,4.678,0.63
	c2.473,0.391,4.979,0.656,7.492,0.804C59.957,34.171,55.818,33.656,51.898,32.86z M73.697,33.791
	c-1.354,0.08-2.713,0.125-4.074,0.139c2.145-0.094,4.289-0.271,6.426-0.542C75.275,33.543,74.49,33.677,73.697,33.791z
	 M66.021,33.508c-3.145,0-6.281-0.178-9.375-0.513c-4.703-0.745-9.28-1.944-13.555-3.646c-5.53-2.203-12.51-3.503-17.395-6.455
	c-2.756-1.659-4.654-3.646-6.299-5.789c7.32,7.381,21.334,11.236,28.97,13.122c5.556,1.355,12.292,2.274,18.914,2.274
	c5.105,0,10.133-0.557,14.514-1.875c-0.336,0.475-0.668,0.975-0.994,1.492C75.93,33.07,70.963,33.508,66.021,33.508z M74.355,43.705
	c0.006-0.041,0.014-0.08,0.021-0.123l0.037,0.029L74.355,43.705z M74.535,42.689c1.475-2.817,2.551-6.426,4.021-8.512
	c0.018-0.024,0.035-0.049,0.053-0.073v-0.001c0,0,0,0,0-0.001l-0.25-0.183c0.004-0.009,0.008-0.018,0.012-0.027
	c0.074-0.008,0.146-0.017,0.219-0.025l0.668-0.076l-0.553-0.379c-0.029-0.02-0.057-0.037-0.086-0.054
	c0.01-0.021,0.02-0.042,0.029-0.063c0.596-0.16,1.174-0.346,1.754-0.533c-2.135,3.514-4.064,7.662-5.939,10.336
	C74.488,42.963,74.51,42.822,74.535,42.689z M16.601,6.822l0.006-0.098c1.334-0.103,2.672-0.465,3.939-1.074
	c0.55-0.086,1.099-0.206,1.638-0.391L22.02,4.786c-0.077,0.028-0.156,0.054-0.234,0.079l-0.22-0.351h-0.002
	c-0.383,0.242-0.775,0.462-1.176,0.657c-1.847,0.271-3.823,0.179-5.582,1.078L14.07,6.631l0.509,0.055
	c-0.532,0.217-1.039,0.521-1.514,0.928l0.323,0.38c0.411-0.349,0.84-0.604,1.283-0.797c0.561-0.243,1.146-0.376,1.77-0.378
	C16.499,6.818,16.548,6.818,16.601,6.822z M18.595,5.869c-0.826,0.242-1.663,0.379-2.491,0.4
	C16.892,6.042,17.733,5.951,18.595,5.869z M78.406,44.463l-0.002-0.001v0.001H78.406z"/>
</svg>
