<?xml version="1.0" encoding="utf-8"?>
<!-- Generator: Adobe Illustrator 15.0.2, SVG Export Plug-In . SVG Version: 6.00 Build 0)  -->
<!DOCTYPE svg PUBLIC "-//W3C//DTD SVG 1.1//EN" "http://www.w3.org/Graphics/SVG/1.1/DTD/svg11.dtd">
<svg version="1.1" id="Layer_1" xmlns="http://www.w3.org/2000/svg" xmlns:xlink="http://www.w3.org/1999/xlink" x="0px" y="0px"
	 width="100px" height="50px" viewBox="0 0 100 50" enable-background="new 0 0 100 50" xml:space="preserve">
<path fill="#48447D" d="M92.503,23.69c-0.438-0.01-0.876-0.01-1.312-0.008l0,0c-6.94,0.062-13.71,1.706-20.546,3.029l0,0
	l-0.152-0.604c5.363-1.665,11.019-3.233,16.73-3.951l0,0c-1.959-0.467-3.887-0.852-5.785-1.158l0,0
	c-1.415,0.577-2.765,1.082-3.462,1.545l0,0l-0.428-0.438c0.305-0.436,0.616-0.961,0.932-1.527l0,0
	c-0.392-0.048-0.78-0.092-1.168-0.134l0,0c-1.668,1.753-3.541,3.242-5.606,4.355l0,0l-0.349-0.513
	c1.496-1.258,3.096-2.607,4.705-3.967l0,0c-2.615-0.234-5.182-0.332-7.716-0.31l0,0c-17.264,0.151-32.965,5.847-51.158,10.63l0,0
	l-0.251-0.561c2.951-1.951,6.799-3.828,11.219-5.526l0,0c-4.218,1.272-8.361,2.846-12.411,4.795l0,0l-0.292-0.55
	c1.426-0.836,2.964-1.638,4.598-2.403l0,0c-3.921,1.714-7.514,3.63-10.642,5.703l0,0l0.001-0.004L9.066,31.58
	c12.945-8.572,33.606-14.417,52.691-14.591l0,0c0.853-0.008,1.705-0.002,2.551,0.013l0,0c1.246-0.061,2.482-0.099,3.702-0.108l0,0
	c3.825-0.033,7.502,0.185,10.898,0.701l0,0c0.916-1.211,1.751-2.507,2.504-3.862l0,0l0.173-0.31l0.287,0.21
	c3.236,2.396,6.883,5.344,9.744,8.32l0,0l0.656,0.422l-0.245,0.012c0.245,0.261,0.482,0.523,0.714,0.785l0,0l0.47,0.53L92.503,23.69
	L92.503,23.69z M91.186,23.061c0.205-0.002,0.41-0.002,0.616-0.001l0,0c-0.193-0.21-0.391-0.422-0.594-0.633l0,0
	c-0.499,0.026-1,0.059-1.501,0.099l0,0l-0.087,0.242c-0.222-0.06-0.441-0.119-0.662-0.176l0,0c-3.74,0.356-7.476,1.113-11.142,2.06
	l0,0C82.22,23.803,86.655,23.101,91.186,23.061L91.186,23.061z M90.271,21.858c-1.53-0.88-3.255-1.614-5.145-2.212l0,0
	c-0.033,0.068-0.068,0.134-0.106,0.202l0,0c0.798,0.236,1.58,0.49,2.344,0.759l0,0l0.068,0.024l0.051,0.052
	c0.044,0.047,0.115,0.131,0.119,0.272l0,0c-0.005,0.101-0.037,0.173-0.079,0.227l0,0c0.599,0.24,1.188,0.492,1.77,0.753l0,0
	C89.619,21.906,89.944,21.879,90.271,21.858L90.271,21.858z M89.507,20.741c-2.412-2.285-5.181-4.505-7.723-6.396l0,0
	c-0.47,0.825-0.97,1.631-1.502,2.406l0,0c0.241-0.204,0.481-0.407,0.719-0.608l0,0l0.458,0.416
	c-0.262,0.376-0.537,0.832-0.816,1.332l0,0c0.825,0.156,1.63,0.331,2.414,0.525l0,0c0.271-0.002,0.544-0.005,0.814-0.007l0,0
	l0.002,0.22c0.218,0.059,0.434,0.119,0.646,0.181l0,0c0.082-0.054,0.159-0.107,0.235-0.162l0,0l0.222-0.162l0.189,0.2
	c0.104,0.111,0.132,0.25,0.133,0.356l0,0c0,0.003,0,0.005,0,0.006l0,0C86.803,19.523,88.211,20.086,89.507,20.741L89.507,20.741z
	 M84.457,19.583c-0.04,0.022-0.079,0.046-0.119,0.068l0,0c0.023,0.006,0.045,0.014,0.069,0.02l0,0
	C84.424,19.64,84.439,19.611,84.457,19.583L84.457,19.583z M84.224,20.75l-0.105,0.094l0,0l0,0L84.224,20.75L84.224,20.75z
	 M83.998,20.646l0.001,0.174L83.998,20.646L83.998,20.646z M83.856,20.538c-0.261-0.082-0.525-0.162-0.788-0.24l0,0
	c-0.183,0.084-0.369,0.168-0.555,0.25l0,0c0.399,0.069,0.802,0.143,1.205,0.22l0,0C83.753,20.673,83.8,20.631,83.856,20.538
	L83.856,20.538z M83.781,19.249c-0.264-0.073-0.529-0.142-0.798-0.209l0,0c-0.337,0.002-0.673,0.006-1.01,0.009l0,0
	c0.504,0.116,0.998,0.238,1.489,0.367l0,0C83.571,19.36,83.678,19.306,83.781,19.249L83.781,19.249z M82.136,20.029
	c-0.766-0.214-1.541-0.411-2.329-0.595l0,0c-0.113,0.214-0.229,0.428-0.342,0.641l0,0c0.629,0.084,1.26,0.178,1.895,0.278l0,0
	C81.619,20.246,81.881,20.14,82.136,20.029L82.136,20.029z M80.229,20.811c-0.362-0.052-0.724-0.101-1.084-0.149l0,0
	c-0.151,0.276-0.304,0.545-0.455,0.803l0,0C79.152,21.252,79.677,21.035,80.229,20.811L80.229,20.811z M79.678,18.351
	c-0.089-0.015-0.178-0.03-0.268-0.045l0,0c-0.056,0.049-0.111,0.096-0.168,0.144l0,0c0.128,0,0.257-0.002,0.385-0.004l0,0
	C79.643,18.413,79.66,18.382,79.678,18.351L79.678,18.351z M79.175,19.291c-0.231-0.052-0.466-0.101-0.699-0.151l0,0
	c-0.21,0.249-0.421,0.493-0.638,0.733l0,0c0.32,0.038,0.642,0.075,0.965,0.116l0,0C78.926,19.76,79.051,19.525,79.175,19.291
	L79.175,19.291z M78.471,18.16c-1.661-0.241-3.391-0.413-5.174-0.519l0,0c0.229,0.03,0.46,0.061,0.688,0.091l0,0
	c1.481,0.158,2.936,0.356,4.352,0.595l0,0C78.382,18.271,78.426,18.215,78.471,18.16L78.471,18.16z M77.52,19.088
	c-13.926,0.146-27.866,0.536-41.223,3.384l0,0c-6.769,1.991-12.808,4.429-17.249,7.03l0,0c17.313-4.653,32.537-9.966,49.294-10.116
	l0,0c2.749-0.025,5.54,0.09,8.388,0.372l0,0C76.993,19.534,77.257,19.312,77.52,19.088L77.52,19.088z M74.91,18.497
	c-0.336-0.05-0.671-0.101-1.01-0.147l0,0c-3.313-0.351-6.771-0.502-10.298-0.47l0,0c-1.515,0.013-3.042,0.06-4.575,0.138l0,0
	c-4.974,0.496-10.031,1.336-14.898,2.43l0,0C54.233,18.98,64.577,18.634,74.91,18.497L74.91,18.497z M45.503,19.508
	c-6.793,1.14-13.357,2.837-19.145,4.954l0,0c3.215-1.034,6.474-1.887,9.766-2.589l0,0C39.133,20.986,42.284,20.191,45.503,19.508
	L45.503,19.508z"/>
</svg>
